<?xml version="1.0" standalone="no"?>
<!DOCTYPE svg PUBLIC "-//W3C//DTD SVG 20010904//EN"
 "http://www.w3.org/TR/2001/REC-SVG-20010904/DTD/svg10.dtd">
<svg version="1.0" xmlns="http://www.w3.org/2000/svg"
 width="278.000000pt" height="97.000000pt" viewBox="0 0 278.000000 97.000000"
 preserveAspectRatio="xMidYMid meet">

<g transform="translate(0.000000,97.000000) scale(0.100000,-0.100000)"
fill="#000000" stroke="none">
<path d="M428 889 c-21 -11 -38 -23 -38 -28 0 -5 54 -39 120 -77 l120 -69 0
-137 c0 -76 3 -138 6 -138 4 0 24 10 45 22 l39 22 0 145 0 146 -120 68 c-66
37 -124 67 -128 67 -4 -1 -24 -10 -44 -21z"/>
<path d="M220 771 l-115 -67 -3 -58 -3 -59 38 23 c21 12 77 45 125 72 l88 50
102 -58 c57 -31 113 -64 126 -72 22 -14 22 -14 22 44 l-1 59 -117 65 c-64 36
-124 66 -132 67 -8 1 -67 -29 -130 -66z"/>
<path d="M748 608 l-3 -142 -110 -64 c-60 -34 -116 -66 -123 -71 -9 -5 2 -16
36 -34 l48 -26 122 70 123 71 -3 146 -3 147 -42 23 -42 23 -3 -143z"/>
<path d="M218 628 l-118 -70 0 -141 0 -142 50 -28 50 -28 0 144 0 143 120 68
c66 38 120 70 120 72 0 8 -80 54 -92 53 -7 0 -66 -32 -130 -71z"/>
<path d="M2630 675 c0 -21 5 -25 30 -25 25 0 30 4 30 25 0 21 -5 25 -30 25
-25 0 -30 -4 -30 -25z"/>
<path d="M1050 625 c0 -24 -5 -35 -15 -35 -8 0 -15 -9 -15 -20 0 -11 7 -20 15
-20 12 0 15 -17 15 -90 l0 -90 35 0 35 0 0 90 c0 83 1 90 20 90 13 0 20 7 20
20 0 13 -7 20 -20 20 -16 0 -20 7 -20 35 0 33 -2 35 -35 35 -33 0 -35 -2 -35
-35z"/>
<path d="M2020 625 c0 -24 -5 -35 -15 -35 -8 0 -15 -9 -15 -20 0 -11 7 -20 15
-20 12 0 15 -17 15 -90 l0 -90 35 0 35 0 0 90 c0 83 1 90 20 90 13 0 20 7 20
20 0 13 -7 20 -20 20 -16 0 -20 7 -20 35 0 33 -2 35 -35 35 -33 0 -35 -2 -35
-35z"/>
<path d="M1322 578 c-19 -19 -22 -20 -22 -5 0 12 -8 17 -30 17 l-30 0 0 -110
0 -110 35 0 35 0 0 70 c0 68 1 72 30 88 22 12 30 24 30 45 0 33 -18 35 -48 5z"/>
<path d="M1753 593 c-7 -2 -13 -13 -13 -23 0 -15 9 -19 48 -22 40 -3 47 -6 50
-25 3 -21 -1 -23 -42 -23 -38 0 -48 -4 -62 -26 -14 -20 -15 -33 -8 -62 12 -48
51 -65 95 -40 16 10 29 13 29 8 0 -6 14 -10 30 -10 l30 0 0 90 c0 83 -2 93
-25 115 -19 20 -34 25 -72 24 -26 0 -54 -3 -60 -6z m85 -150 c-4 -33 -41 -45
-52 -17 -8 21 11 44 36 44 15 0 19 -6 16 -27z"/>
<path d="M2373 593 c-7 -2 -13 -13 -13 -24 0 -16 7 -19 45 -19 34 0 47 -5 55
-19 15 -30 14 -31 -39 -31 -59 0 -74 -15 -74 -72 0 -62 50 -88 101 -52 12 8
22 10 22 5 0 -6 14 -11 30 -11 l30 0 0 93 c0 98 -3 108 -37 126 -22 11 -97 14
-120 4z m92 -133 c10 -16 -14 -50 -35 -50 -14 0 -20 7 -20 23 0 13 3 27 7 30
10 10 41 8 48 -3z"/>
<path d="M1450 506 c0 -115 9 -136 58 -136 21 0 43 5 50 12 9 9 12 5 12 -19 0
-34 -13 -43 -66 -43 -27 0 -34 -4 -34 -20 0 -39 110 -38 146 2 16 17 20 41 22
154 l4 134 -36 0 -35 0 -3 -82 c-3 -76 -5 -83 -24 -86 -26 -4 -34 19 -34 106
l0 62 -30 0 -30 0 0 -84z"/>
<path d="M2630 480 l0 -110 30 0 30 0 0 110 0 110 -30 0 -30 0 0 -110z"/>
<path d="M275 517 l-40 -23 -3 -146 -3 -147 120 -71 c65 -38 121 -70 125 -70
3 0 26 12 50 28 l45 27 -122 71 -122 70 -5 142 -5 141 -40 -22z"/>
<path d="M2190 400 c0 -28 3 -30 35 -30 32 0 35 2 35 30 0 28 -3 30 -35 30
-32 0 -35 -2 -35 -30z"/>
<path d="M350 327 l0 -55 116 -68 c64 -37 122 -67 129 -67 6 0 64 30 128 67
l117 68 0 54 c0 49 -2 54 -17 45 -10 -5 -65 -37 -122 -70 -88 -51 -107 -58
-125 -49 -26 13 -149 84 -193 110 l-33 20 0 -55z"/>
</g>
</svg>
