<?xml version="1.0" standalone="no"?>
<!DOCTYPE svg PUBLIC "-//W3C//DTD SVG 20010904//EN"
 "http://www.w3.org/TR/2001/REC-SVG-20010904/DTD/svg10.dtd">
<svg version="1.0" xmlns="http://www.w3.org/2000/svg"
 width="86.000000pt" height="94.000000pt" viewBox="0 0 86.000000 94.000000"
 preserveAspectRatio="xMidYMid meet">

<g transform="translate(0.000000,94.000000) scale(0.100000,-0.100000)"
fill="#000000" stroke="none">
<path d="M378 869 c-21 -11 -38 -23 -38 -28 0 -5 54 -39 120 -77 l120 -69 0
-137 c0 -76 3 -138 6 -138 4 0 24 10 45 22 l39 22 0 145 0 146 -120 68 c-66
37 -124 67 -128 67 -4 -1 -24 -10 -44 -21z"/>
<path d="M170 751 l-115 -67 -3 -58 -3 -59 38 23 c21 12 77 45 125 72 l88 50
102 -58 c57 -31 113 -64 126 -72 22 -14 22 -14 22 44 l0 59 -118 65 c-64 36
-124 66 -132 67 -8 1 -67 -29 -130 -66z"/>
<path d="M698 588 l-3 -142 -110 -64 c-60 -34 -116 -66 -123 -71 -9 -5 2 -16
36 -34 l48 -26 122 70 123 71 -3 146 -3 147 -42 23 -42 23 -3 -143z"/>
<path d="M168 608 l-118 -70 0 -141 0 -142 50 -28 50 -28 0 144 0 143 120 68
c66 38 120 70 120 72 0 8 -80 54 -92 53 -7 0 -66 -32 -130 -71z"/>
<path d="M225 497 l-40 -23 -3 -146 -3 -147 120 -71 c65 -38 121 -70 125 -70
3 0 26 12 50 28 l45 27 -122 71 -122 70 -5 142 -5 141 -40 -22z"/>
<path d="M300 307 l0 -55 116 -68 c64 -37 122 -67 129 -67 6 0 64 30 128 67
l117 68 0 54 c0 49 -2 54 -17 45 -10 -5 -65 -37 -122 -70 -88 -51 -107 -58
-125 -49 -26 13 -149 84 -193 110 l-33 20 0 -55z"/>
</g>
</svg>
